#!OML:ASF F:\twosubjects\two\wednesday\Session 1\rory1.ASF
:FULLY-SPECIFIED
:DEGREES
165
root 18.8774 18.5216 -5.15804 -177.108 20.9107 -177.222
lowerback -0.711995 -0.368546 -5.0111
upperback -0.819394 -0.452067 -0.275565
thorax -0.405843 -0.192041 2.52378
lowerneck -15.8331 0.113154 -0.0584004
upperneck 17.0882 1.08733 -3.52222
head 7.91798 0.244954 -1.02356
rclavicle -2.55935e-015 -1.27222e-014
rhumerus 33.0514 -2.81988 -48.8858
rradius 35.0898
rwrist 2.01356
rhand 1.60239 33.9522
rfingers 7.12502
rthumb 27.1243 5.88109
lclavicle -2.55935e-015 -1.27222e-014
lhumerus 36.0952 -7.34621 42.1036
lradius 21.777
lwrist -10.2585
lhand -15.0168 15.177
lfingers 7.12502
lthumb 11.1485 44.8608
rfemur -27.9806 1.57579 10.622
rtibia 48.8246
rfoot -4.88096 -2.26809
rtoes -4.15671
lfemur -7.35295 -2.80325 -21.6476
ltibia 25.8079
lfoot -18.5186 10.7412
ltoes -2.66239
166
root 18.8936 18.5179 -5.29345 -177.196 20.5267 -177.586
lowerback -0.819624 -0.423441 -5.47113
upperback -0.842643 -0.513971 -0.287445
thorax -0.361011 -0.219948 2.76832
lowerneck -15.6927 0.0965162 -0.563383
upperneck 17.4499 1.13858 -3.1215
head 8.01012 0.281185 -0.80162
rclavicle 1.41417e-014 1.51076e-014
rhumerus 33.2675 -2.80136 -48.5285
rradius 35.0068
rwrist 1.6867
rhand 1.68488 33.6773
rfingers 7.12502
rthumb 27.2032 5.61855
lclavicle 1.41417e-014 1.51076e-014
lhumerus 36.0522 -7.47681 42.5228
lradius 21.9425
lwrist -10.06
lhand -15.4594 15.4752
lfingers 7.12502
lthumb 10.7216 45.1816
rfemur -28.5621 1.52881 10.2979
rtibia 47.669
rfoot -4.77728 -2.29647
rtoes -3.33613
lfemur -6.77665 -2.91061 -22.1552
ltibia 25.493
lfoot -18.4586 10.6816
ltoes -4.30085
167
root 18.9133 18.5216 -5.42118 -177.219 20.1941 -177.756
lowerback -0.889685 -0.357972 -5.74541
upperback -0.751073 -0.415643 -0.349982
thorax -0.234897 -0.174194 2.85751
lowerneck -15.7375 0.124166 -0.594273
upperneck 17.6123 1.18716 -3.06685
head 8.07247 0.30826 -0.773012
rclavicle -1.39926e-015 -1.19271e-014
rhumerus 33.5129 -3.49077 -48.6075
rradius 34.7999
rwrist 1.9073
rhand 1.93077 33.7679
rfingers 7.12502
rthumb 27.4384 5.74622
lclavicle -1.39926e-015 -1.19271e-014
lhumerus 36.3149 -7.804 42.4779
lradius 22.2212
lwrist -9.89808
lhand -14.7575 14.879
lfingers 7.12502
lthumb 11.3986 44.5492
rfemur -29.1375 1.75654 10.2035
rtibia 46.4833
rfoot -4.67741 -2.86664
rtoes -2.36343
lfemur -6.16969 -2.87436 -22.407
ltibia 25.103
lfoot -18.4142 10.3799
ltoes -5.74141
168
root 18.933 18.5337 -5.54993 -177.109 19.7176 -177.629
lowerback -0.878756 -0.322371 -5.70559
upperback -0.788128 -0.369512 -0.375337
thorax -0.283757 -0.148836 2.80959
lowerneck -15.468 0.0430538 -0.393102
upperneck 17.7088 1.09251 -3.31087
head 8.05771 0.260307 -0.897601
rclavicle -2.66853e-014 -5.00937e-014
rhumerus 33.8191 -4.23702 -49.0404
rradius 34.2851
rwrist 2.62538
rhand 1.84956 33.9997
rfingers 7.12502
rthumb 27.3607 5.9657
lclavicle -2.66853e-014 -5.00937e-014
lhumerus 36.2827 -9.04698 41.5235
lradius 22.9581
lwrist -8.60375
lhand -13.9118 15.2614
lfingers 7.12502
lthumb 12.2141 44.8848
rfemur -29.6633 2.13572 10.4101
rtibia 45.2767
rfoot -4.80233 -3.39792
rtoes -3.48497
lfemur -5.58982 -2.96407 -22.3105
ltibia 24.6356
lfoot -18.3022 10.0454
ltoes -7.08751
169
root 18.9498 18.5413 -5.6831 -177.079 19.1165 -177.567
lowerback -0.836412 -0.341402 -5.67225
upperback -0.819136 -0.398201 -0.396522
thorax -0.337139 -0.160919 2.76919
lowerneck -15.2899 -0.100483 -0.383654
upperneck 17.9198 0.922338 -3.34687
head 8.09375 0.182638 -0.930379
rclavicle 3.85728e-015 3.33958e-014
rhumerus 34.0793 -4.79458 -49.3252
rradius 33.8688
rwrist 3.07362
rhand 1.84263 34.0546
rfingers 7.12502
rthumb 27.3541 6.01953
lclavicle 3.85728e-015 3.33958e-014
lhumerus 36.3045 -9.82566 41.3688
lradius 23.4486
lwrist -7.6317
lhand -14.7147 15.8712
lfingers 7.12502
lthumb 11.4399 45.5391
rfemur -30.0419 2.51057 10.4873
rtibia 44.0589
rfoot -4.59877 -4.11719
rtoes -5.80699
lfemur -4.94463 -3.22598 -22.3213
ltibia 24.1652
lfoot -18.0318 10.025
ltoes -7.94751
170
root 18.9677 18.538 -5.80929 -177.071 18.5627 -177.894
lowerback -0.846987 -0.411929 -6.00826
upperback -0.840343 -0.48457 -0.525108
thorax -0.343841 -0.199509 2.82421
lowerneck -15.291 -0.113019 -0.447462
upperneck 18.082 0.886931 -3.13146
head 8.14604 0.183596 -0.852557
rclavicle -7.73474e-014 -1.82882e-014
rhumerus 34.3089 -5.03294 -49.3009
rradius 33.6739
rwrist 2.83118
rhand 1.96759 33.9914
rfingers 7.12502
rthumb 27.4736 5.97532
lclavicle -7.73474e-014 -1.82882e-014
lhumerus 36.4352 -9.69826 42.0263
lradius 23.5156
lwrist -7.97534
lhand -15.8916 15.5333
lfingers 7.12502
lthumb 10.3047 45.2609
rfemur -30.5682 2.65848 10.1507
rtibia 42.8331
rfoot -4.02547 -4.86893
rtoes -5.53514
lfemur -4.44008 -3.3714 -22.7072
ltibia 23.7133
lfoot -17.767 9.85011
ltoes -8.8178
171
root 18.9853 18.5292 -5.93027 -176.967 17.9833 -178.302
lowerback -0.855943 -0.46431 -6.34996
upperback -0.951362 -0.545905 -0.732581
thorax -0.446453 -0.218789 2.80137
lowerneck -15.1931 -0.143571 -0.412039
upperneck 18.2226 0.813833 -2.97096
head 8.17336 0.170271 -0.81326
rclavicle 6.07846e-015 -9.54166e-015
rhumerus 34.5577 -5.7545 -49.8506
rradius 33.3912
rwrist 3.3343
rhand 1.99893 34.1822
rfingers 7.12502
rthumb 27.5036 6.17089
lclavicle 6.07846e-015 -9.54166e-015
lhumerus 36.5999 -10.27 41.8756
lradius 23.8043
lwrist -7.86925
lhand -16.3098 16.3349
lfingers 7.12502
lthumb 9.90131 46.0821
rfemur -31.1887 2.61405 9.74505
rtibia 41.5876
rfoot -3.7959 -5.22228
rtoes -4.02517
lfemur -4.06687 -3.43598 -23.1137
ltibia 23.2029
lfoot -17.4432 9.31108
ltoes -9.56678
172
root 19.0052 18.53 -6.05675 -176.976 17.3902 -178.24
lowerback -0.702999 -0.411434 -6.21938
upperback -0.951842 -0.486516 -0.819588
thorax -0.539965 -0.186779 2.64009
lowerneck -15.1501 -0.2708 -0.447011
upperneck 18.4871 0.642124 -2.84121
head 8.25103 0.103289 -0.78413
rclavicle -4.48446e-014 -3.18055e-014
rhumerus 35.0277 -7.38568 -51.3013
rradius 32.8433
rwrist 5.26866
rhand 2.53045 34.4477
rfingers 7.12502
rthumb 28.0118 6.51828
lclavicle -4.48446e-014 -3.18055e-014
lhumerus 37.0406 -11.1939 41.5989
lradius 24.0504
lwrist -7.22768
lhand -15.7072 16.2298
lfingers 7.12502
lthumb 10.4826 45.9485
rfemur -31.4319 2.87974 9.84766
rtibia 40.326
rfoot -4.02763 -5.51292
rtoes -5.08485
lfemur -3.34151 -3.52473 -23.0217
ltibia 22.6238
lfoot -17.0662 8.693
ltoes -9.38329
173
root 19.0258 18.5456 -6.19281 -177.168 16.7424 -178.071
lowerback -0.529453 -0.380766 -6.02424
upperback -0.797993 -0.45697 -0.825308
thorax -0.482874 -0.179762 2.52588
lowerneck -15.0892 -0.343413 -0.613897
upperneck 18.643 0.549455 -2.61886
head 8.29024 0.0735114 -0.692721
rclavicle -2.02388e-014 3.73715e-014
rhumerus 35.525 -8.5547 -52.2175
rradius 32.3948
rwrist 6.44511
rhand 2.95147 34.5707
rfingers 7.12502
rthumb 28.4142 6.70776
lclavicle -2.02388e-014 3.73715e-014
lhumerus 37.3376 -11.3378 42.0735
lradius 24.2629
lwrist -7.43134
lhand -12.8009 11.8777
lfingers 7.12502
lthumb 13.2851 41.4343
rfemur -31.3636 3.17462 10.0886
rtibia 39.035
rfoot -3.91269 -5.95452
rtoes -6.92431
lfemur -2.33825 -3.84633 -22.8654
ltibia 22.0609
lfoot -16.8167 8.33153
ltoes -9.55186
174
root 19.0435 18.5557 -6.32631 -177.227 16.0424 -178.193
lowerback -0.50373 -0.429664 -6.08287
upperback -0.750458 -0.51972 -0.892507
thorax -0.442835 -0.212 2.48926
lowerneck -14.9181 -0.407492 -0.822867
upperneck 18.7236 0.47797 -2.41101
head 8.28505 0.0510796 -0.596026
rclavicle 5.60945e-015 -1.66979e-014
rhumerus 35.8135 -9.02336 -52.4652
rradius 32.1459
rwrist 6.71987
rhand 2.59536 34.592
rfingers 7.12502
rthumb 28.0738 6.67271
lclavicle 5.60945e-015 -1.66979e-014
lhumerus 37.374 -11.2114 42.6769
lradius 24.5391
lwrist -8.21768
lhand -19.5889 17.3755
lfingers 7.12502
lthumb 6.7367 47.2484
rfemur -31.4811 3.44311 9.90004
rtibia 37.7034
rfoot -3.50238 -6.51914
rtoes -5.41468
lfemur -1.61137 -4.2634 -23.0267
ltibia 21.5567
lfoot -16.5802 8.13962
ltoes -10.3793
